# xmcd
#
# Track frame offsets:
#	150
#	17601
#	34731
#	51918
#	68079
#	80752
#	97674
#	114525
#	127905
#	138558
#	152926
#	168464
#	191309
#	205359
#	225933
#	258058
#	272415
#	286636
#	302282
#
# Disc length: 4221 seconds
#
# Revision: 1
# Processed by: cddbd v1.5.2PL0 Copyright (c) Steve Scherf et al.
# Submitted via: audiograbber 1.83.01
#
DISCID=ed107b13
DTITLE=Herança - As Melhores Do Herança
DYEAR=2007
DGENRE=Gaucha
TTITLE0=Coracão
TTITLE1=A Dança da Cachaça
TTITLE2=Me Bate Nega Véia
TTITLE3=Tarde de Mais
TTITLE4=O Beijo
TTITLE5=A Encomenda
TTITLE6=Quero Você
TTITLE7=Swing da Vanera
TTITLE8=Eu Vou lá
TTITLE9=Embalo do Herança
TTITLE10=Barquinho
TTITLE11=Gafarrão
TTITLE12=Choo do Ombro do Véio
TTITLE13=É Hora de Partir
TTITLE14=Sorungo do Namorado
TTITLE15=Gaiteiro Apaixonado
TTITLE16=A.M.M.M
TTITLE17=Capricha Gaiteiro
TTITLE18=Pra Namorar
EXTD=01- Coração
EXTT0=
EXTT1=
EXTT2=
EXTT3=
EXTT4=
EXTT5=
EXTT6=
EXTT7=
EXTT8=
EXTT9=
EXTT10=
EXTT11=
EXTT12=
EXTT13=
EXTT14=
EXTT15=
EXTT16=
EXTT17=
EXTT18=
PLAYORDER=
